<svg width="80" height="80" viewBox="0 0 80 80" fill="none" xmlns="http://www.w3.org/2000/svg">
<path d="M32.5 72.5H17.5V7.5H62.5V35M25 22.5H55M25 32.5H45M52.5 47.5V57.5L60 65M67.5 57.5C67.5 61.4782 65.9196 65.2936 63.1066 68.1066C60.2936 70.9196 56.4782 72.5 52.5 72.5C48.5218 72.5 44.7064 70.9196 41.8934 68.1066C39.0804 65.2936 37.5 61.4782 37.5 57.5C37.5 53.5218 39.0804 49.7064 41.8934 46.8934C44.7064 44.0804 48.5218 42.5 52.5 42.5C56.4782 42.5 60.2936 44.0804 63.1066 46.8934C65.9196 49.7064 67.5 53.5218 67.5 57.5Z" stroke="#022D70" stroke-width="5" stroke-linejoin="round"/>
</svg>
