<svg width="80" height="80" viewBox="0 0 80 80" fill="none" xmlns="http://www.w3.org/2000/svg">
<path d="M76.4133 44.41V60.2501C76.4133 60.9927 76.1183 61.7048 75.5932 62.23C75.0681 62.7551 74.3559 63.0501 73.6133 63.0501H6.38667C5.64406 63.0501 4.93187 62.7551 4.40677 62.23C3.88167 61.7048 3.58667 60.9927 3.58667 60.2501V15.4367C3.58667 14.6941 3.88167 13.9819 4.40677 13.4568C4.93187 12.9317 5.64406 12.6367 6.38667 12.6367H19.1M34.4 63.0534L28.8 77.0567M45.6 63.0534L51.2033 77.0567M23.1967 77.0567H56.8067" stroke="#022D70" stroke-width="5" stroke-linecap="round" stroke-linejoin="round"/>
<path d="M48.1833 3.34669H51.3167C51.7287 3.34581 52.1369 3.42621 52.5178 3.58328C52.8987 3.74035 53.2449 3.97101 53.5366 4.26206C53.8283 4.5531 54.0596 4.89881 54.2175 5.2794C54.3754 5.65999 54.4567 6.06798 54.4567 6.48002V15.0834C54.4567 18.4109 53.1348 21.6022 50.7818 23.9552C48.4289 26.3081 45.2376 27.63 41.91 27.63C38.5824 27.63 35.3911 26.3081 33.0382 23.9552C30.6852 21.6022 29.3633 18.4109 29.3633 15.0834V6.48335C29.3629 6.07132 29.4437 5.66324 29.6012 5.28248C29.7587 4.90173 29.9897 4.55577 30.2811 4.26442C30.5724 3.97306 30.9184 3.74204 31.2991 3.58456C31.6799 3.42708 32.088 3.34625 32.5 3.34669H35.6367M70.14 21.3567C71.8038 21.3567 73.3994 20.6957 74.5759 19.5193C75.7524 18.3428 76.4133 16.7471 76.4133 15.0834C76.4133 13.4196 75.7524 11.8239 74.5759 10.6474C73.3994 9.47096 71.8038 8.81002 70.14 8.81002C68.4762 8.81002 66.8806 9.47096 65.7041 10.6474C64.5276 11.8239 63.8667 13.4196 63.8667 15.0834C63.8667 16.7471 64.5276 18.3428 65.7041 19.5193C66.8806 20.6957 68.4762 21.3567 70.14 21.3567Z" stroke="#022D70" stroke-width="5" stroke-linecap="round" stroke-linejoin="round"/>
<path d="M41.91 27.6334V29.2C41.9902 32.89 43.5124 36.4018 46.1504 38.9831C48.7885 41.5644 52.3325 43.0099 56.0234 43.0099C59.7142 43.0099 63.2583 41.5644 65.8963 38.9831C68.5343 36.4018 70.0565 32.89 70.1367 29.2V21.3567" stroke="#022D70" stroke-width="5" stroke-linecap="round" stroke-linejoin="round"/>
</svg>
