<svg width="80" height="80" viewBox="0 0 80 80" fill="none" xmlns="http://www.w3.org/2000/svg">
<path fill-rule="evenodd" clip-rule="evenodd" d="M68.3333 44.8201C70.1733 44.8201 71.6667 46.3034 71.6667 48.1367C71.6667 50.0034 70.99 52.8767 69.55 55.5867C68.0833 58.3501 65.6033 61.3534 61.6933 62.8467C60.8689 63.164 59.9523 63.141 59.1448 62.7829C58.3373 62.4248 57.7049 61.7608 57.3867 60.9367C57.2302 60.5293 57.1557 60.095 57.1676 59.6587C57.1795 59.2224 57.2774 58.7927 57.4558 58.3944C57.6343 57.9961 57.8896 57.6369 58.2072 57.3376C58.5248 57.0382 58.8985 56.8046 59.3067 56.6501C61.23 55.9167 62.6667 54.3501 63.6567 52.4834C64.6767 50.5667 65 48.7501 65 48.1367C65 46.3034 66.4933 44.8201 68.3333 44.8201Z" fill="#022D70"/>
<path fill-rule="evenodd" clip-rule="evenodd" d="M65.3367 39.6501L65.4267 39.8101L65.4333 39.8167L65.4434 39.8367L65.4767 39.9001L65.5967 40.1001C65.68 40.2401 65.83 40.4834 65.9867 40.7067C66.2662 41.1047 66.6293 41.4368 67.0505 41.6799C67.4718 41.9229 67.941 42.071 68.4254 42.1139C68.9099 42.1567 69.3978 42.0933 69.8552 41.928C70.3125 41.7626 70.7283 41.4994 71.0734 41.1567C71.3364 40.8947 71.5539 40.5905 71.7167 40.2567C71.8267 40.0401 71.8867 39.8501 71.9034 39.8034C72.0093 39.4325 72.106 39.0591 72.1934 38.6834C72.3267 38.0934 72.4934 37.2834 72.66 36.3867C72.9734 34.6667 73.3334 32.3334 73.3334 30.5767C73.3334 24.5767 71.4534 18.7267 68.1667 14.3034C64.8667 9.86341 59.9734 6.66675 54.0634 6.66675C48.12 6.66675 43.3967 9.26675 40 13.5667C36.6 9.26675 31.88 6.66675 25.9367 6.66675C20.0267 6.66675 15.1334 9.86341 11.8367 14.3001C8.54335 18.7267 6.66669 24.5767 6.66669 30.5767C6.66669 33.7867 7.15335 36.8434 8.00002 39.7367C8.4178 41.1479 8.91113 42.5167 9.48002 43.8434C13.42 53.0167 20.78 60.2234 26.9234 65.0534C30.0267 67.4867 32.89 69.3767 34.9834 70.6567C36.1037 71.3409 37.243 71.9934 38.4 72.6134L38.4567 72.6434L38.4734 72.6501L38.48 72.6534L40 73.3334L41.3634 72.7301L41.3767 72.7234L41.43 72.7001L41.6134 72.6167L42.28 72.3067C42.8467 72.0401 43.6467 71.6567 44.5867 71.1801C46.897 70.024 49.1445 68.7467 51.32 67.3534C54.6534 65.1867 53.97 60.7201 51.22 58.9367C48.1734 56.9634 43.2367 53.1167 41.03 48.1467C40.8164 47.6637 40.6316 47.1684 40.4767 46.6634C40.1645 45.6378 40.0039 44.5721 40 43.5001C40 41.5101 40.6567 39.6567 41.6467 38.3634C42.6234 37.0867 43.7767 36.5234 44.8967 36.5234C45.41 36.5234 46.35 36.8267 47.5267 37.7867C48.65 38.7001 49.6334 39.9267 50.2167 41.0534C50.5148 41.6224 50.9631 42.0988 51.5129 42.4311C52.0627 42.7633 52.693 42.9385 53.3354 42.9378C53.9777 42.9372 54.6076 42.7605 55.1567 42.4272C55.7058 42.0938 56.1531 41.6164 56.45 41.0467C57.0434 39.9034 58.01 38.6734 59.1067 37.7667C60.2534 36.8201 61.1634 36.5234 61.6667 36.5234C62.6134 36.5234 63.2034 36.7667 63.6567 37.1234C64.1667 37.5167 64.73 38.2234 65.2667 39.4801L65.3367 39.6501ZM14.4 37.8767C13.6993 35.5065 13.3401 33.0484 13.3334 30.5767C13.3334 17.6801 21.6667 13.3001 26.6667 13.3001C35.6 13.3001 40 21.5934 40 21.5934C42.5167 16.3667 49.3434 13.3001 54.0634 13.3001C57.3634 13.3001 60.4367 15.0567 62.8067 18.2434C65.1833 21.4434 66.6667 25.8867 66.6667 30.5734C66.6655 30.7647 66.6588 30.9559 66.6467 31.1467C65.1247 30.3003 63.4081 29.8659 61.6667 29.8867C58.9767 29.8867 56.5933 31.2201 54.8433 32.6667C54.3078 33.1112 53.7989 33.589 53.3167 34.1001C52.825 33.5825 52.3006 33.0971 51.7467 32.6467C49.98 31.2101 47.5734 29.8867 44.8967 29.8867C41.26 29.8867 38.2967 31.7967 36.35 34.3367C34.4167 36.8567 33.3334 40.1467 33.3334 43.5034C33.3334 45.2834 33.6134 46.9801 34.0934 48.5701C34.3289 49.3501 34.6089 50.1001 34.9334 50.8201C37.41 56.4134 42.1267 60.6001 45.55 63.0967C43.7803 64.1289 41.97 65.0896 40.1234 65.9767C36.9618 64.1462 33.9322 62.0968 31.0567 59.8434C25.2834 55.3067 18.9167 48.9301 15.6134 41.2301C15.1426 40.1363 14.7375 39.0187 14.4 37.8767Z" fill="#022D70"/>
</svg>
