<svg width="80" height="80" viewBox="0 0 80 80" fill="none" xmlns="http://www.w3.org/2000/svg">
<path d="M55 24.9999C55 24.5579 54.8244 24.134 54.5119 23.8214C54.1993 23.5088 53.7754 23.3333 53.3334 23.3333C52.8913 23.3333 52.4674 23.5088 52.1548 23.8214C51.8423 24.134 51.6667 24.5579 51.6667 24.9999V29.5566C50.14 30.1066 48.55 30.8633 46.7034 31.8699C46.3269 32.0873 46.0502 32.4433 45.9325 32.8618C45.8147 33.2803 45.8651 33.7283 46.073 34.1101C46.2809 34.492 46.6298 34.7775 47.0452 34.9057C47.4606 35.034 47.9097 34.9948 48.2967 34.7966C49.3922 34.1885 50.5169 33.6345 51.6667 33.1366V38.3333C51.6667 38.7753 51.8423 39.1992 52.1548 39.5118C52.4674 39.8243 52.8913 39.9999 53.3334 39.9999C53.7754 39.9999 54.1993 39.8243 54.5119 39.5118C54.8244 39.1992 55 38.7753 55 38.3333V32.0583C56.4734 31.7466 58.01 31.6433 59.9767 31.6716C60.4187 31.6778 60.8451 31.5081 61.162 31.1999C61.479 30.8917 61.6605 30.4703 61.6667 30.0283C61.6729 29.5862 61.5032 29.1598 61.195 28.8429C60.8868 28.526 60.4654 28.3444 60.0234 28.3383C58.1767 28.3116 56.5717 28.3916 55 28.6649V24.9999ZM31.9034 48.2233C26.7417 46.2449 24.0434 45.7866 19.1834 45.8333L19.15 42.4999C24.45 42.4499 27.5634 42.9899 33.0967 45.1099L31.9034 48.2233ZM19.1834 37.4999C24.0434 37.4533 26.7417 37.9116 31.9034 39.8899L33.0967 36.7766C27.5634 34.6566 24.45 34.1149 19.15 34.1666L19.1834 37.4999ZM31.9034 31.5566C26.7417 29.5783 24.0434 29.1199 19.1834 29.1666L19.15 25.8333C24.45 25.7833 27.5634 26.3216 33.0967 28.4433L31.9034 31.5566Z" fill="#022D70"/>
<path fill-rule="evenodd" clip-rule="evenodd" d="M72.0716 18.7834C71.3827 18.6182 70.6921 18.4598 70 18.3084V17.5417C70 16.0667 69.0183 14.7184 67.5266 14.3417C57.2766 11.765 49.8133 14.495 41.2666 18.47C40.85 18.5556 40.4277 18.6439 40 18.735C39.5722 18.6439 39.15 18.5556 38.7333 18.47C30.1866 14.495 22.7233 11.765 12.4733 14.3434C11.7636 14.524 11.1346 14.9368 10.6865 15.516C10.2383 16.0952 9.99666 16.8077 9.99997 17.54V18.3067C9.3233 18.4556 8.63274 18.615 7.9283 18.785C7.56785 18.8723 7.24731 19.0785 7.01841 19.3703C6.7895 19.6621 6.66558 20.0225 6.66663 20.3934V62.9584C6.66663 64.0134 7.6383 64.8 8.6733 64.6034C19.0283 62.6284 26.0066 62.49 35.5433 63.9367C35.9616 64.7591 36.5994 65.4498 37.3859 65.9322C38.1725 66.4146 39.0772 66.6699 40 66.6699C40.9227 66.6699 41.8274 66.4146 42.614 65.9322C43.4006 65.4498 44.0383 64.7591 44.4566 63.9367C53.9916 62.49 60.9733 62.6284 71.3266 64.6034C71.5698 64.6504 71.8204 64.6432 72.0605 64.5824C72.3006 64.5217 72.5244 64.4088 72.716 64.2517C72.9075 64.0947 73.0621 63.8974 73.1688 63.6739C73.2755 63.4503 73.3317 63.206 73.3333 62.9584V20.3934C73.3344 20.0225 73.2104 19.6621 72.9815 19.3703C72.7526 19.0785 72.4321 18.8706 72.0716 18.7834ZM41.6666 21.9617C50.5283 17.7884 57.2366 15.205 66.6666 17.5634V56.615L66.655 56.6267C66.644 56.6353 66.6314 56.6415 66.6179 56.645C66.6044 56.6484 66.5904 56.649 66.5766 56.6467C57.0233 54.9017 49.8866 57.0034 41.705 60.705L41.695 60.71H41.69L41.6716 60.7034L41.6683 60.7L41.6666 21.9617ZM13.3333 17.5617C22.7633 15.2034 29.4716 17.7884 38.3333 21.9617V60.7L38.3283 60.7034L38.325 60.705L38.31 60.71L38.295 60.7067C30.1133 57.0034 22.9766 54.9017 13.4233 56.645C13.4097 56.6476 13.3957 56.6472 13.3822 56.6441C13.3687 56.6409 13.356 56.635 13.345 56.6267L13.34 56.6234L13.3333 56.6134V17.5617Z" fill="#022D70"/>
</svg>
