<svg width="80" height="80" viewBox="0 0 80 80" fill="none" xmlns="http://www.w3.org/2000/svg">
<g clip-path="url(#clip0_12_326)">
<path d="M46.9167 40.0965C46.9171 38.9993 46.7014 37.9127 46.2818 36.8988C45.8622 35.885 45.2469 34.9637 44.4712 34.1877C43.6955 33.4117 42.7745 32.7961 41.7608 32.3761C40.7471 31.9561 39.6606 31.7399 38.5633 31.7399C36.3485 31.7408 34.2246 32.6212 32.6588 34.1877C31.093 35.7541 30.2133 37.8783 30.2133 40.0932C30.2133 42.3087 31.0934 44.4334 32.66 45.9999C34.2265 47.5665 36.3512 48.4465 38.5667 48.4465C40.7815 48.4457 42.9054 47.5652 44.4712 45.9987C46.037 44.4323 46.9167 42.3081 46.9167 40.0932M58.69 40.0932C58.69 39.0712 58.284 38.0911 57.5614 37.3685C56.8387 36.6459 55.8586 36.2399 54.8367 36.2399C53.8147 36.2399 52.8346 36.6459 52.1119 37.3685C51.3893 38.0911 50.9833 39.0712 50.9833 40.0932C50.9842 41.1146 51.3906 42.0939 52.1131 42.8158C52.8357 43.5377 53.8153 43.9432 54.8367 43.9432C55.8581 43.9432 56.8377 43.5377 57.5602 42.8158C58.2828 42.0939 58.6891 41.1146 58.69 40.0932ZM74.6633 58.4599C74.6633 57.4379 74.2567 56.4578 73.5328 55.7352C72.8089 55.0125 71.8271 54.6065 70.8033 54.6065C69.7796 54.6065 68.7978 55.0125 68.0739 55.7352C67.35 56.4578 66.9433 57.4379 66.9433 58.4599C66.9433 59.4818 67.35 60.462 68.0739 61.1846C68.7978 61.9072 69.7796 62.3132 70.8033 62.3132C71.8265 62.3141 72.8081 61.9094 73.5326 61.1881C74.257 60.4668 74.6649 59.4879 74.6667 58.4665M69.1633 46.2965C69.1633 45.2737 68.7584 44.2927 68.0377 43.5695C67.3169 42.8462 66.3393 42.4399 65.32 42.4399C64.815 42.4394 64.3149 42.5389 63.8482 42.7325C63.3815 42.9261 62.9574 43.2101 62.6002 43.5683C62.243 43.9265 61.9596 44.3518 61.7662 44.8199C61.5729 45.288 61.4733 45.7898 61.4733 46.2965C61.4733 46.8033 61.5729 47.3051 61.7662 47.7732C61.9596 48.2413 62.243 48.6666 62.6002 49.0248C62.9574 49.383 63.3815 49.667 63.8482 49.8606C64.3149 50.0542 64.815 50.1536 65.32 50.1532C66.3393 50.1532 67.3169 49.7469 68.0377 49.0236C68.7584 48.3004 69.1633 47.3194 69.1633 46.2965ZM80 46.5032C80 45.483 79.5947 44.5046 78.8733 43.7832C78.1519 43.0618 77.1735 42.6565 76.1533 42.6565C75.1331 42.6565 74.1547 43.0618 73.4333 43.7832C72.7119 44.5046 72.3067 45.483 72.3067 46.5032C72.3067 47.5234 72.7119 48.5018 73.4333 49.2232C74.1547 49.9446 75.1331 50.3499 76.1533 50.3499C77.1735 50.3499 78.1519 49.9446 78.8733 49.2232C79.5947 48.5018 80 47.5234 80 46.5032ZM69.07 33.5599C69.07 32.5397 68.664 31.5613 67.9414 30.8399C67.2188 30.1185 66.2386 29.7132 65.2167 29.7132C64.1947 29.7132 63.2146 30.1185 62.492 30.8399C61.7693 31.5613 61.3633 32.5397 61.3633 33.5599C61.3642 34.5795 61.7706 35.5571 62.4931 36.2777C63.2157 36.9984 64.1953 37.4032 65.2167 37.4032C66.2381 37.4032 67.2177 36.9984 67.9402 36.2777C68.6628 35.5571 69.0691 34.5795 69.07 33.5599ZM80.0033 33.7099C80.0033 32.687 79.5956 31.7061 78.8698 30.9828C78.1441 30.2595 77.1597 29.8532 76.1333 29.8532C75.6248 29.8528 75.1212 29.9522 74.6513 30.1458C74.1814 30.3394 73.7544 30.6235 73.3947 30.9816C73.035 31.3398 72.7496 31.7651 72.5549 32.2332C72.3602 32.7014 72.26 33.2031 72.26 33.7099C72.26 34.2166 72.3602 34.7184 72.5549 35.1865C72.7496 35.6547 73.035 36.08 73.3947 36.4381C73.7544 36.7963 74.1814 37.0803 74.6513 37.2739C75.1212 37.4675 75.6248 37.567 76.1333 37.5665C76.6416 37.5661 77.1447 37.4659 77.6141 37.2717C78.0834 37.0775 78.5098 36.793 78.8689 36.4346C79.2279 36.0762 79.5126 35.6508 79.7067 35.1827C79.9008 34.7146 80.0004 34.213 80 33.7065M74.58 21.5999C74.58 20.575 74.1738 19.592 73.4506 18.8669C72.7274 18.1419 71.7465 17.7341 70.7233 17.7332C69.6996 17.7332 68.7178 18.1406 67.9939 18.8657C67.27 19.5909 66.8633 20.5744 66.8633 21.5999C66.8633 22.6254 67.27 23.6089 67.9939 24.334C68.7178 25.0592 69.6996 25.4665 70.7233 25.4665C71.7465 25.4657 72.7274 25.0579 73.4506 24.3328C74.1738 23.6078 74.58 22.6248 74.58 21.5999ZM38.7233 1.27655C28.3567 1.27655 18.6267 5.29988 11.3233 12.6032C7.7236 16.1983 4.87005 20.4695 2.92678 25.1712C0.983509 29.8729 -0.0111502 34.9124 1.18401e-06 39.9999C1.18401e-06 50.3632 4.02333 60.0932 11.3233 67.3999C14.9188 71 19.1905 73.8538 23.8928 75.7971C28.5952 77.7404 33.6353 78.7348 38.7233 78.7232C47.3167 78.7232 55.45 75.9732 62.24 70.7699L57.5067 64.5965C52.121 68.7335 45.5145 70.9658 38.7233 70.9432C34.6556 70.9526 30.6262 70.1579 26.8667 68.6048C23.1072 67.0516 19.6917 64.7708 16.8167 61.8932C13.9387 59.0219 11.6582 55.6088 10.1072 51.851C8.55609 48.0932 7.76513 44.0652 7.78 39.9999C7.78 31.7399 10.9933 23.9599 16.83 18.0999C19.6996 15.2192 23.1123 12.9365 26.8704 11.3842C30.6285 9.83188 34.6573 9.04071 38.7233 9.05655C45.5833 9.05655 52.08 11.2532 57.5133 15.4065L62.2367 9.22655C55.4951 4.04668 47.2251 1.25055 38.7233 1.27655Z" fill="#022D70"/>
</g>
<defs>
<clipPath id="clip0_12_326">
<rect width="80" height="80" fill="white"/>
</clipPath>
</defs>
</svg>
