<svg width="80" height="80" viewBox="0 0 80 80" fill="none" xmlns="http://www.w3.org/2000/svg">
<g clip-path="url(#clip0_12_284)">
<path d="M7 67.4V57.18C7 55.1117 7.53533 53.2112 8.606 51.4787C9.67667 49.7462 11.0969 48.4224 12.8667 47.5075C16.6556 45.6217 20.5056 44.2079 24.4167 43.2662C28.3278 42.3245 32.3 41.8524 36.3333 41.85C37.5556 41.85 38.7778 41.8962 40 41.9887C41.2222 42.0812 42.4444 42.2174 43.6667 42.3975V67.4H7ZM36.3333 38.2C32.3 38.2 28.8472 36.7704 25.975 33.9112C23.1028 31.0521 21.6667 27.615 21.6667 23.6C21.6667 19.585 23.1028 16.1479 25.975 13.2888C28.8472 10.4296 32.3 9 36.3333 9C40.3667 9 43.8194 10.4296 46.6917 13.2888C49.5639 16.1479 51 19.585 51 23.6C51 27.615 49.5639 31.0521 46.6917 33.9112C43.8194 36.7704 40.3667 38.2 36.3333 38.2ZM58.3333 82V63.75H51V41.85H73L65.6667 56.45H73L58.3333 82Z" fill="#022D70"/>
</g>
<defs>
<clipPath id="clip0_12_284">
<rect width="80" height="80" fill="white"/>
</clipPath>
</defs>
</svg>
