<svg width="80" height="80" viewBox="0 0 80 80" fill="none" xmlns="http://www.w3.org/2000/svg">
<path d="M9.16666 15.3718C9.16666 12.7536 10.1947 10.2427 12.0247 8.39138C13.8547 6.54006 16.3367 5.5 18.9247 5.5H54.4086C56.9966 5.5 59.4786 6.54006 61.3086 8.39138C63.1386 10.2427 64.1667 12.7536 64.1667 15.3718V35.1154C64.1667 35.8294 63.8863 36.5142 63.3872 37.0191C62.8881 37.524 62.2112 37.8077 61.5054 37.8077C60.7995 37.8077 60.1226 37.524 59.6235 37.0191C59.1245 36.5142 58.8441 35.8294 58.8441 35.1154V15.3718C58.8441 12.8949 56.857 10.8846 54.4086 10.8846H18.9247C16.4763 10.8846 14.4892 12.8949 14.4892 15.3718V65.6282C14.4892 68.1051 16.4763 70.1154 18.9247 70.1154H45.5376C46.2434 70.1154 46.9203 70.399 47.4194 70.9039C47.9185 71.4088 48.1989 72.0937 48.1989 72.8077C48.1989 73.5217 47.9185 74.2065 47.4194 74.7114C46.9203 75.2163 46.2434 75.5 45.5376 75.5H18.9247C16.3367 75.5 13.8547 74.4599 12.0247 72.6086C10.1947 70.7573 9.16666 68.2464 9.16666 65.6282V15.3718Z" fill="#022D70"/>
<path d="M61.4717 45.0522C62.173 45.0522 62.8455 45.3353 63.3414 45.8391C63.8372 46.3429 64.1158 47.0263 64.1158 47.7388V49.2361C67.7364 49.3722 71.1667 52.0839 71.1667 56.0958C71.1667 56.8083 70.8881 57.4917 70.3922 57.9955C69.8964 58.4993 69.2238 58.7824 68.5226 58.7824C67.8213 58.7824 67.1488 58.4993 66.653 57.9955C66.1571 57.4917 65.8785 56.8083 65.8785 56.0958C65.8785 55.5872 65.3074 54.6057 63.8303 54.6057H58.521C58.0996 54.5942 57.6881 54.7365 57.3611 55.0069C57.1214 55.2218 57.065 55.426 57.065 55.5585C57.0596 55.7387 57.081 55.9186 57.1284 56.0922C57.1752 56.1274 57.2247 56.1585 57.2765 56.1854C57.4175 56.257 57.629 56.343 57.9569 56.4433L66.4814 58.9543C67.4544 59.2481 68.7024 59.7352 69.6825 60.7919C70.7401 61.9382 71.1667 63.4069 71.1667 64.9937C71.1667 68.8158 67.7963 71.3197 64.4225 71.3197H64.1158V72.8134C64.1158 73.526 63.8372 74.2093 63.3414 74.7131C62.8455 75.217 62.173 75.5 61.4717 75.5C60.7705 75.5 60.098 75.217 59.6021 74.7131C59.1062 74.2093 58.8277 73.526 58.8277 72.8134V71.3161C55.2071 71.18 51.7768 68.4684 51.7768 64.4564C51.7768 63.7439 52.0554 63.0606 52.5513 62.5567C53.0471 62.0529 53.7196 61.7699 54.4209 61.7699C55.1221 61.7699 55.7947 62.0529 56.2905 62.5567C56.7864 63.0606 57.065 63.7439 57.065 64.4564C57.065 64.9651 57.6361 65.9466 59.1132 65.9466H64.4225C64.8439 65.9581 65.2554 65.8157 65.5824 65.5454C65.8221 65.3305 65.8785 65.1263 65.8785 64.9937C65.8839 64.8136 65.8625 64.6337 65.8151 64.46C65.7683 64.4249 65.7188 64.3937 65.667 64.3669C65.526 64.2952 65.3145 64.2093 64.9866 64.109L56.4621 61.5979C55.4891 61.3042 54.2411 60.817 53.261 59.7603C52.2034 58.614 51.7768 57.1454 51.7768 55.5585C51.7768 51.7364 55.1471 49.2325 58.521 49.2325H58.8277V47.7388C58.8277 47.0263 59.1062 46.3429 59.6021 45.8391C60.098 45.3353 60.7705 45.0522 61.4717 45.0522ZM20.048 36.9925C20.048 36.28 20.3266 35.5967 20.8224 35.0928C21.3183 34.589 21.9908 34.306 22.6921 34.306H24.4548C25.156 34.306 25.8286 34.589 26.3244 35.0928C26.8203 35.5967 27.0989 36.28 27.0989 36.9925C27.0989 37.7051 26.8203 38.3884 26.3244 38.8922C25.8286 39.3961 25.156 39.6791 24.4548 39.6791H22.6921C21.9908 39.6791 21.3183 39.3961 20.8224 38.8922C20.3266 38.3884 20.048 37.7051 20.048 36.9925ZM30.6243 36.9925C30.6243 36.28 30.9029 35.5967 31.3987 35.0928C31.8946 34.589 32.5671 34.306 33.2684 34.306H50.8955C51.5967 34.306 52.2692 34.589 52.7651 35.0928C53.261 35.5967 53.5395 36.28 53.5395 36.9925C53.5395 37.7051 53.261 38.3884 52.7651 38.8922C52.2692 39.3961 51.5967 39.6791 50.8955 39.6791H33.2684C32.5671 39.6791 31.8946 39.3961 31.3987 38.8922C30.9029 38.3884 30.6243 37.7051 30.6243 36.9925ZM20.048 47.7388C20.048 47.0263 20.3266 46.3429 20.8224 45.8391C21.3183 45.3353 21.9908 45.0522 22.6921 45.0522H24.4548C25.156 45.0522 25.8286 45.3353 26.3244 45.8391C26.8203 46.3429 27.0989 47.0263 27.0989 47.7388C27.0989 48.4513 26.8203 49.1347 26.3244 49.6385C25.8286 50.1423 25.156 50.4254 24.4548 50.4254H22.6921C21.9908 50.4254 21.3183 50.1423 20.8224 49.6385C20.3266 49.1347 20.048 48.4513 20.048 47.7388ZM30.6243 47.7388C30.6243 47.0263 30.9029 46.3429 31.3987 45.8391C31.8946 45.3353 32.5671 45.0522 33.2684 45.0522H45.6073C46.3086 45.0522 46.9811 45.3353 47.477 45.8391C47.9728 46.3429 48.2514 47.0263 48.2514 47.7388C48.2514 48.4513 47.9728 49.1347 47.477 49.6385C46.9811 50.1423 46.3086 50.4254 45.6073 50.4254H33.2684C32.5671 50.4254 31.8946 50.1423 31.3987 49.6385C30.9029 49.1347 30.6243 48.4513 30.6243 47.7388ZM20.048 58.4851C20.048 57.7726 20.3266 57.0892 20.8224 56.5854C21.3183 56.0816 21.9908 55.7985 22.6921 55.7985H24.4548C25.156 55.7985 25.8286 56.0816 26.3244 56.5854C26.8203 57.0892 27.0989 57.7726 27.0989 58.4851C27.0989 59.1976 26.8203 59.8809 26.3244 60.3848C25.8286 60.8886 25.156 61.1716 24.4548 61.1716H22.6921C21.9908 61.1716 21.3183 60.8886 20.8224 60.3848C20.3266 59.8809 20.048 59.1976 20.048 58.4851ZM30.6243 58.4851C30.6243 57.7726 30.9029 57.0892 31.3987 56.5854C31.8946 56.0816 32.5671 55.7985 33.2684 55.7985H40.3192C41.0204 55.7985 41.693 56.0816 42.1888 56.5854C42.6847 57.0892 42.9633 57.7726 42.9633 58.4851C42.9633 59.1976 42.6847 59.8809 42.1888 60.3848C41.693 60.8886 41.0204 61.1716 40.3192 61.1716H33.2684C32.5671 61.1716 31.8946 60.8886 31.3987 60.3848C30.9029 59.8809 30.6243 59.1976 30.6243 58.4851ZM19.1667 20.8731C19.1667 19.2039 19.1667 18.3693 19.4346 17.7101C19.7932 16.8342 20.4791 16.1385 21.3418 15.7758C21.9905 15.5 22.8119 15.5 24.4548 15.5H49.1328C50.7756 15.5 51.597 15.5 52.2457 15.7722C53.1078 16.1366 53.7925 16.8335 54.1494 17.7101C54.4209 18.3693 54.4209 19.2039 54.4209 20.8731C54.4209 22.5424 54.4209 23.377 54.153 24.0361C53.7944 24.9121 53.1085 25.6077 52.2457 25.9704C51.597 26.2463 50.7756 26.2463 49.1328 26.2463H24.4548C22.8119 26.2463 21.9905 26.2463 21.3418 25.974C20.4797 25.6097 19.7951 24.9128 19.4381 24.0361C19.1667 23.377 19.1667 22.5424 19.1667 20.8731Z" fill="#022D70"/>
</svg>
